# xmcd
#
# Track frame offsets:
#	150
#	21753
#	41463
#	63248
#	83698
#	100223
#	117000
#	139465
#	159005
#	176410
#
# Disc length: 2764 seconds
#
# Revision: 2
# Processed by: cddbd v1.5.2PL0 Copyright (c) Steve Scherf et al.
# Submitted via: EasyCDDAExtractor 15.3.0.1
#
DISCID=710aca0a
DTITLE=Lissette - ...Canta Lo Sentimental
DYEAR=1993
DGENRE=Latin
TTITLE0=Un Poco Mas
TTITLE1=Canta Lo Sentimental
TTITLE2=Alma Mia
TTITLE3=El Ultimo Cafe
TTITLE4=Y Entonces
TTITLE5=La Montaña
TTITLE6=Apaga La Luz (Duo Con Donato Poveda)
TTITLE7=Te Propongo Volver
TTITLE8=Que Tristeza
TTITLE9=Delirio, La Gloria Eres Tu, Mienteme
EXTD=YEAR: 1993
EXTT0=
EXTT1=
EXTT2=
EXTT3=
EXTT4=
EXTT5=
EXTT6=
EXTT7=
EXTT8=
EXTT9=
PLAYORDER=
